#!OML:ASF I:\Actors\actors\Patient Classification 1\Patient 1\Session 1\Subject1.ASF
:FULLY-SPECIFIED
:DEGREES
742
root 0.592478 17.4624 8.81214 8.30768 -2.84064 -9.88298
lowerback -0.697008 2.378 5.2223
upperback -7.6702 3.44386 0.991722
thorax -7.40297 1.40657 -2.06216
lowerneck -8.57039 -5.58211 -2.45144
upperneck 34.3239 -10.6968 8.3654
head 13.6802 -4.00649 2.23175
rclavicle -1.68967e-014 -7.15625e-015
rhumerus 19.2617 37.6239 -84.0134
rradius 118.598
rwrist 33.3759
rhand -27.5666 -36.4564
rfingers 7.12502
rthumb -0.967375 293.566
lclavicle -1.68967e-014 -7.15625e-015
lhumerus -8.16492 -41.3739 104.311
lradius 115.838
lwrist -22.9213
lhand -52.4916 -49.4149
lfingers 7.12502
lthumb -24.9787 -21.0277
rfemur -6.15678 19.1453 25.9895
rtibia 6.4531
rfoot -12.995 -18.2002
rtoes -1.04633
lfemur 10.7326 -54.0191 -14.649
ltibia -4.47669
lfoot -42.0984 58.415
ltoes 21.9804
743
root 0.592118 17.4625 8.81157 8.3439 -2.81893 -9.88043
lowerback -0.635612 2.34161 5.1816
upperback -7.67144 3.39704 0.976629
thorax -7.44419 1.38415 -2.05613
lowerneck -8.62635 -5.59287 -2.54676
upperneck 34.4213 -10.7233 8.4151
head 13.7486 -4.01956 2.26443
rclavicle 2.48481e-014 -3.02153e-014
rhumerus 19.2745 37.6051 -83.9443
rradius 118.555
rwrist 33.3167
rhand -27.4709 -36.2933
rfingers 7.12502
rthumb -0.874906 293.729
lclavicle 2.48481e-014 -3.02153e-014
lhumerus -8.35704 -41.3385 104.556
lradius 115.848
lwrist -22.9925
lhand -52.6479 -49.3714
lfingers 7.12502
lthumb -25.1284 -21.0051
rfemur -6.19843 19.1266 25.971
rtibia 6.43151
rfoot -12.9611 -18.219
rtoes -1.27546
lfemur 10.7165 -54.1765 -14.657
ltibia -4.44855
lfoot -42.4111 58.4466
ltoes 22.0579
744
root 0.592168 17.4627 8.81093 8.37438 -2.78932 -9.87532
lowerback -0.571964 2.30727 5.15751
upperback -7.66689 3.3526 0.948633
thorax -7.47872 1.36163 -2.07282
lowerneck -8.6227 -5.60988 -2.6628
upperneck 34.3941 -10.7721 8.56003
head 13.7584 -4.03957 2.33486
rclavicle 3.8266e-014 7.95139e-016
rhumerus 19.3064 37.5427 -83.8374
rradius 118.509
rwrist 33.2711
rhand -27.4182 -35.8951
rfingers 7.12502
rthumb -0.824044 294.127
lclavicle 3.8266e-014 7.95139e-016
lhumerus -8.48413 -41.2913 104.768
lradius 115.781
lwrist -22.8874
lhand -52.3171 -51.0976
lfingers 7.12502
lthumb -24.8115 -22.6873
rfemur -6.21567 19.1163 25.9498
rtibia 6.37663
rfoot -12.9341 -18.2396
rtoes -1.0973
lfemur 10.7054 -54.3302 -14.6723
ltibia -4.41969
lfoot -42.7527 58.4657
ltoes 22.2521
745
root 0.592141 17.4628 8.81029 8.40949 -2.76804 -9.89174
lowerback -0.538095 2.28002 5.14479
upperback -7.65449 3.31608 0.928325
thorax -7.48681 1.3435 -2.08651
lowerneck -8.57443 -5.62812 -2.74052
upperneck 34.2913 -10.8128 8.68216
head 13.7194 -4.0581 2.39032
rclavicle 1.19271e-015 -2.22639e-014
rhumerus 19.3298 37.4827 -83.7459
rradius 118.46
rwrist 33.3593
rhand -27.4716 -35.6401
rfingers 7.12502
rthumb -0.875615 294.382
lclavicle 1.19271e-015 -2.22639e-014
lhumerus -8.63163 -41.2727 104.983
lradius 115.685
lwrist -22.7682
lhand -52.1151 -50.9438
lfingers 7.12502
lthumb -24.6178 -22.5069
rfemur -6.24522 19.1293 25.9537
rtibia 6.34281
rfoot -12.8955 -18.2564
rtoes -0.859556
lfemur 10.7 -54.464 -14.6578
ltibia -4.41753
lfoot -42.9656 58.546
ltoes 22.3232
746
root 0.591995 17.4627 8.80985 8.45473 -2.76931 -9.94919
lowerback -0.519774 2.27442 5.15713
upperback -7.64655 3.3102 0.93195
thorax -7.48893 1.33996 -2.08992
lowerneck -8.53945 -5.65118 -2.72316
upperneck 34.216 -10.829 8.64698
head 13.675 -4.07154 2.36991
rclavicle 1.70955e-014 2.3059e-014
rhumerus 19.3681 37.413 -83.6602
rradius 118.388
rwrist 33.4817
rhand -27.4117 -35.4215
rfingers 7.12502
rthumb -0.817704 294.6
lclavicle 1.70955e-014 2.3059e-014
lhumerus -8.93197 -41.2575 105.365
lradius 115.591
lwrist -22.7825
lhand -52.1446 -48.3695
lfingers 7.12502
lthumb -24.6461 -19.9365
rfemur -6.29477 19.174 26.0063
rtibia 6.34573
rfoot -12.8942 -18.2677
rtoes -0.746121
lfemur 10.8215 -54.7777 -14.7104
ltibia -4.42802
lfoot -43.5319 58.7179
ltoes 22.5921
747
root 0.591496 17.4629 8.80964 8.51559 -2.7865 -10.0398
lowerback -0.519273 2.26572 5.20222
upperback -7.64877 3.30148 0.951068
thorax -7.49155 1.33329 -2.09449
lowerneck -8.49483 -5.64692 -2.63529
upperneck 34.15 -10.7925 8.53174
head 13.6176 -4.06284 2.31373
rclavicle 1.39149e-014 1.35174e-014
rhumerus 19.4924 37.3634 -83.5554
rradius 118.333
rwrist 33.3685
rhand -27.1803 -35.0797
rfingers 7.12502
rthumb -0.594184 294.941
lclavicle 1.39149e-014 1.35174e-014
lhumerus -9.31741 -41.2243 105.764
lradius 115.532
lwrist -22.9359
lhand -52.1451 -47.211
lfingers 7.12502
lthumb -24.6466 -18.778
rfemur -6.35142 19.2363 26.0935
rtibia 6.33729
rfoot -12.8955 -18.2799
rtoes -0.7413
lfemur 10.9661 -55.1632 -14.7444
ltibia -4.43877
lfoot -44.3152 58.926
ltoes 22.9133
748
root 0.590855 17.4636 8.81025 8.57879 -2.80413 -10.1108
lowerback -0.508447 2.26132 5.25131
upperback -7.6538 3.29804 0.946079
thorax -7.50126 1.32781 -2.12735
lowerneck -8.47168 -5.64165 -2.56015
upperneck 34.0776 -10.7701 8.47026
head 13.5686 -4.05473 2.27854
rclavicle -1.71949e-014 -1.59028e-014
rhumerus 19.657 37.3393 -83.4016
rradius 118.268
rwrist 33.4381
rhand -27.0452 -34.9187
rfingers 7.12502
rthumb -0.463778 295.102
lclavicle -1.71949e-014 -1.59028e-014
lhumerus -9.67619 -41.2859 106.052
lradius 115.504
lwrist -23.0175
lhand -52.2137 -47.9672
lfingers 7.12502
lthumb -24.7123 -19.5432
rfemur -6.38909 19.2738 26.1551
rtibia 6.27913
rfoot -12.8495 -18.2933
rtoes -0.852461
lfemur 10.985 -55.3528 -14.6832
ltibia -4.44322
lfoot -44.757 59.0282
ltoes 23.0592
749
root 0.590886 17.4643 8.81134 8.64219 -2.82506 -10.0714
lowerback -0.501821 2.2968 5.24752
upperback -7.64358 3.34058 0.865562
thorax -7.48608 1.34671 -2.21184
lowerneck -8.47656 -5.6777 -2.50867
upperneck 33.966 -10.8353 8.51224
head 13.5256 -4.07522 2.27412
rclavicle 1.83876e-014 9.54166e-015
rhumerus 19.8348 37.2621 -83.1818
rradius 118.172
rwrist 33.764
rhand -26.9935 -35.09
rfingers 7.12502
rthumb -0.413833 294.931
lclavicle 1.83876e-014 9.54166e-015
lhumerus -9.96362 -41.5213 106.254
lradius 115.469
lwrist -22.8194
lhand -52.3231 -48.1523
lfingers 7.12502
lthumb -24.8172 -19.7428
rfemur -6.43549 19.2486 26.0814
rtibia 6.22263
rfoot -12.805 -18.2596
rtoes -0.886103
lfemur 10.9753 -55.51 -14.7394
ltibia -4.41801
lfoot -45.1413 59.0582
ltoes 23.2622
750
root 0.590757 17.4645 8.81234 8.71991 -2.8571 -9.98778
lowerback -0.555989 2.34563 5.19539
upperback -7.61971 3.39363 0.772061
thorax -7.42101 1.37526 -2.28039
lowerneck -8.61757 -5.73392 -2.73485
upperneck 34.0264 -10.9661 8.76227
head 13.6293 -4.12314 2.39045
rclavicle 3.67752e-015 -6.36111e-015
rhumerus 19.9925 37.1648 -82.9848
rradius 118.106
rwrist 33.8536
rhand -26.8594 -35.1841
rfingers 7.12502
rthumb -0.284254 294.836
lclavicle 3.67752e-015 -6.36111e-015
lhumerus -10.262 -41.8604 106.479
lradius 115.378
lwrist -22.1651
lhand -52.3424 -49.0643
lfingers 7.12502
lthumb -24.8357 -20.6573
rfemur -6.51982 19.2113 25.9474
rtibia 6.19832
rfoot -12.7751 -18.2009
rtoes -0.797375
lfemur 10.993 -55.7761 -14.8848
ltibia -4.37434
lfoot -45.788 59.1306
ltoes 23.5617
751
root 0.590321 17.4648 8.81321 8.79064 -2.90106 -9.98826
lowerback -0.595568 2.38067 5.16645
upperback -7.61054 3.43486 0.745293
thorax -7.38448 1.39786 -2.29224
lowerneck -8.73801 -5.7591 -2.85084
upperneck 34.0874 -11.0308 8.88717
head 13.7067 -4.14418 2.44852
rclavicle -1.67973e-014 1.43125e-014
rhumerus 20.0718 37.115 -82.8515
rradius 118.051
rwrist 33.7561
rhand -26.6622 -34.9524
rfingers 7.12502
rthumb -0.0938075 295.068
lclavicle -1.67973e-014 1.43125e-014
lhumerus -10.639 -42.1839 106.788
lradius 115.208
lwrist -21.5196
lhand -52.4993 -51.304
lfingers 7.12502
lthumb -24.986 -22.9179
rfemur -6.60208 19.2006 25.9163
rtibia 6.18906
rfoot -12.7369 -18.1552
rtoes -0.841012
lfemur 11.0337 -56.0265 -14.9498
ltibia -4.3347
lfoot -46.4087 59.2346
ltoes 23.8072
752
root 0.589921 17.4656 8.81397 8.84167 -2.94487 -10.0469
lowerback -0.575998 2.41839 5.18338
upperback -7.61486 3.48804 0.750498
thorax -7.39615 1.42292 -2.29982
lowerneck -8.74836 -5.73435 -2.61477
upperneck 34.0139 -10.9744 8.71536
head 13.6423 -4.11228 2.34533
rclavicle -1.54058e-014 0
rhumerus 20.088 37.0856 -82.7475
rradius 118.011
rwrist 33.7345
rhand -26.4909 -34.6032
rfingers 7.12502
rthumb 0.0715743 295.417
lclavicle -1.54058e-014 0
lhumerus -11.03 -42.3806 107.1
lradius 115.066
lwrist -21.6489
lhand -52.8097 -52.809
lfingers 7.12502
lthumb -25.2834 -24.4645
rfemur -6.65986 19.2076 25.9646
rtibia 6.19257
rfoot -12.719 -18.1204
rtoes -0.951583
lfemur 11.093 -56.2161 -14.9539
ltibia -4.30451
lfoot -46.8924 59.3194
ltoes 23.9699
753
root 0.589748 17.4663 8.81477 8.88292 -2.97559 -10.0737
lowerback -0.561419 2.44086 5.18794
upperback -7.61626 3.52 0.758503
thorax -7.40407 1.43851 -2.29627
lowerneck -8.75303 -5.69509 -2.35032
upperneck 34.0077 -10.8678 8.42098
head 13.5912 -4.06807 2.19776
rclavicle -6.55989e-015 -1.59028e-015
rhumerus 20.0502 37.0942 -82.6978
rradius 118.008
rwrist 33.7591
rhand -26.3647 -34.3152
rfingers 7.12502
rthumb 0.193467 295.705
lclavicle -6.55989e-015 -1.59028e-015
lhumerus -11.4137 -42.418 107.378
lradius 115.034
lwrist -22.2941
lhand -52.8735 -54.1037
lfingers 7.12502
lthumb -25.3446 -25.7679
rfemur -6.69206 19.2247 25.9797
rtibia 6.17219
rfoot -12.7156 -18.106
rtoes -0.896177
lfemur 11.1267 -56.3578 -14.9601
ltibia -4.29506
lfoot -47.2653 59.3723
ltoes 24.1262
754
root 0.589538 17.4663 8.81547 8.91834 -2.99903 -10.0633
lowerback -0.561082 2.44808 5.15337
upperback -7.62169 3.52857 0.756548
thorax -7.41098 1.44464 -2.27976
lowerneck -8.74176 -5.65835 -2.2015
upperneck 34.0401 -10.7773 8.21921
head 13.5705 -4.03361 2.10622
rclavicle 2.08724e-015 7.95139e-016
rhumerus 19.9472 37.0991 -82.7318
rradius 118.028
rwrist 33.7736
rhand -26.2636 -34.0952
rfingers 7.12502
rthumb 0.291141 295.925
lclavicle 2.08724e-015 7.95139e-016
lhumerus -11.7662 -42.4201 107.603
lradius 115.071
lwrist -22.9302
lhand -52.8386 -55.5234
lfingers 7.12502
lthumb -25.3111 -27.1828
rfemur -6.70959 19.2394 25.9522
rtibia 6.1288
rfoot -12.7038 -18.0904
rtoes -0.808546
lfemur 11.1505 -56.4874 -14.9989
ltibia -4.29237
lfoot -47.5241 59.4328
ltoes 24.2648
755
root 0.588753 17.4652 8.81628 8.96105 -3.0197 -10.0555
lowerback -0.57681 2.4658 5.1374
upperback -7.63283 3.54919 0.724173
thorax -7.41108 1.45455 -2.30531
lowerneck -8.78559 -5.65953 -2.24348
upperneck 34.1192 -10.7936 8.25876
head 13.6227 -4.03681 2.12696
rclavicle 2.28602e-014 2.62396e-014
rhumerus 19.8438 37.0671 -82.8114
rradius 118.061
rwrist 33.7417
rhand -26.1001 -34.1457
rfingers 7.12502
rthumb 0.449025 295.875
lclavicle 2.28602e-014 2.62396e-014
lhumerus -12.0299 -42.4505 107.729
lradius 115.218
lwrist -23.8008
lhand -52.9622 -54.2316
lfingers 7.12502
lthumb -25.4295 -25.9078
rfemur -6.74078 19.2301 25.9288
rtibia 6.09702
rfoot -12.679 -18.0528
rtoes -0.814593
lfemur 11.1414 -56.605 -15.0188
ltibia -4.25635
lfoot -47.7849 59.4807
ltoes 24.3234
